<svg xmlns:xlink="http://www.w3.org/1999/xlink" xmlns="http://www.w3.org/2000/svg" class="" viewBox="0 0 64 64" role="img" aria-label="Twitter" width="64"  height="64" ><defs><symbol id="ps-icon_third-party_twitter" viewBox="0 0 64 64"><path d="M35.865 16.49c-3.279 1.78-4.973 5.574-4.135 9.254a23.22 23.22 0 0 1-16.941-8.721c-2.182 3.814-1.067 8.693 2.546 11.143a8.096 8.096 0 0 1-3.732-1.046v.105c0 3.975 2.759 7.396 6.594 8.183a8.1 8.1 0 0 1-3.71.142 8.247 8.247 0 0 0 7.68 5.798 16.35 16.35 0 0 1-10.212 3.58 16.948 16.948 0 0 1-1.955-.12 23.03 23.03 0 0 0 12.6 3.743v.007c15.12 0 23.391-12.719 23.391-23.75 0-.36 0-.722-.023-1.077a16.882 16.882 0 0 0 4.1-4.323 16.24 16.24 0 0 1-4.72 1.315 8.353 8.353 0 0 0 3.615-4.616 16.346 16.346 0 0 1-5.22 2.024 8.172 8.172 0 0 0-6-2.631c-1.323 0-2.655.32-3.878.99z"></path></symbol></defs>
                                        <use href="/etc.clientlibs/global_pdc/clientlibs/auto-clientlibs/pdc.designkit/resources/ps-icons-map__dig__third-party.svg#ps-icon_third-party_twitter" fill="#FFFFFF" xlink:href="#ps-icon_third-party_twitter"></use>
                                    </svg>