<svg xmlns:xlink="http://www.w3.org/1999/xlink" xmlns="http://www.w3.org/2000/svg" class="" viewBox="0 0 238 42" role="img" aria-label="PlayStation" width="272"  height="48" ><defs><symbol id="ps-icon_brand_playstation-family_logo" viewBox="0 0 238 42"><path d="M77.629 8.215H67.147a.082.082 0 0 0-.082.073v24.525a.082.082 0 0 0 .082.078h4.248a.077.077 0 0 0 .072-.078V10.955c0-.024 0-.038.03-.038h4.86c1.774 0 2.746 1.783 2.746 5.016s-.967 5.026-2.745 5.026h-2.929a.077.077 0 0 0-.072.077v2.547a.068.068 0 0 0 .072.077h4.195a5.36 5.36 0 0 0 3.972-1.865c1.242-1.397 1.895-3.417 1.895-5.833 0-4.688-2.291-7.732-5.867-7.732m12.82-.015h-4.252a.077.077 0 0 0-.082.073v24.525a.082.082 0 0 0 .082.078h4.253a.082.082 0 0 0 .077-.078V8.293a.077.077 0 0 0-.077-.073m18.542 5.968a.082.082 0 0 0-.082-.077h-7.573c-6.765 0-7.654 4.983-7.654 9.366v3.784c0 3.262 2.025 5.63 4.832 5.63h4.132a.077.077 0 0 0 .073-.078v-2.542a.077.077 0 0 0-.073-.077h-2.977c-.676 0-1.595-.3-1.595-2.639v-4.083c0-2.72.252-4.456.817-5.446.61-1.093 1.57-1.238 2.416-1.238h3.229s.024 0 .029.04c.004.038 0 15.985 0 15.985a.077.077 0 0 0 .077.078h4.243a.082.082 0 0 0 .082-.078V14.188zm30.586 4.292l-2.098-.16c-1.57-.135-2.735-1.005-2.735-3.576 0-3.006 1.348-3.827 3.146-3.827h5.8a.082.082 0 0 0 .077-.073V8.293a.082.082 0 0 0-.078-.073h-6.403c-3.958 0-6.766 2.325-6.766 6.954v.198c0 3.654 2.248 6.283 5.601 6.549l2.083.154c1.59.121 2.58 1.542 2.58 3.697v.61c0 1.347-.337 3.817-3.232 3.817h-6.026a.077.077 0 0 0-.073.077v2.537a.077.077 0 0 0 .073.078h7.476c2.305 0 6.161-.933 6.161-7.206 0-2.266-.517-4.06-1.56-5.354-.895-1.107-2.214-1.711-4.026-1.851m34.819-4.292a.077.077 0 0 0-.078-.077h-7.587c-6.766 0-7.65 4.983-7.65 9.366v3.784c0 3.262 2.025 5.63 4.833 5.63h4.117a.082.082 0 0 0 .077-.078v-2.542a.082.082 0 0 0-.077-.077h-2.953c-.676 0-1.585-.3-1.585-2.639v-4.083c0-2.72.251-4.456.807-5.446.61-1.093 1.58-1.238 2.417-1.238h3.237s.03 0 .034.04v15.985a.077.077 0 0 0 .078.078h4.247a.077.077 0 0 0 .073-.078zm-17.084-.077h-4.61a.029.029 0 0 1-.024-.029v-3.088a.077.077 0 0 0-.077-.077h-4.243a.082.082 0 0 0-.083.077v16.271c0 3.258 2.03 5.626 4.833 5.626h3.04a.082.082 0 0 0 .082-.078v-2.537a.082.082 0 0 0-.082-.082h-1.87c-.484 0-1.6-.029-1.605-2.416v-10.97a.024.024 0 0 1 .024-.024h4.615a.077.077 0 0 0 .078-.073v-2.523a.077.077 0 0 0-.078-.077m29.668 0h-4.591a.029.029 0 0 1-.03-.029v-3.088a.072.072 0 0 0-.067-.077h-4.258a.077.077 0 0 0-.077.077v16.271c0 3.258 2.025 5.626 4.833 5.626h3.04a.077.077 0 0 0 .077-.078v-2.537a.082.082 0 0 0-.078-.082h-1.865c-.483 0-1.595-.029-1.595-2.416v-10.97a.024.024 0 0 1 .024-.024h4.596a.077.077 0 0 0 .073-.073v-2.523a.077.077 0 0 0-.073-.077m7.012 0h-4.248a.077.077 0 0 0-.077.077v18.625a.082.082 0 0 0 .077.078h4.248a.077.077 0 0 0 .078-.078V14.188a.072.072 0 0 0-.078-.077m0-5.896h-4.248a.077.077 0 0 0-.077.073v3.561a.077.077 0 0 0 .077.073h4.248a.068.068 0 0 0 .078-.073V8.293a.072.072 0 0 0-.078-.073m29.382 5.891h-7.577a.077.077 0 0 0-.073.077v18.625a.077.077 0 0 0 .073.078h4.257a.077.077 0 0 0 .073-.078v-15.99a.024.024 0 0 1 .029-.03h3.218c.875 0 1.837.145 2.446 1.155.565.914.816 2.518.816 5.036v9.834a.077.077 0 0 0 .073.077h4.238a.077.077 0 0 0 .077-.077v-9.346c0-4.378-.87-9.36-7.645-9.36m-18.475 0c-7.094 0-8.002 5.006-8.002 9.384s.908 9.41 8.002 9.41c7.095 0 7.998-5.027 7.998-9.41s-.903-9.385-7.998-9.385m2.692 14.85c-.667 1.103-1.73 1.247-2.692 1.247-.961 0-2.02-.144-2.696-1.246-.61-.967-.89-2.726-.89-5.466 0-3.233.397-5.07 1.286-5.94.532-.53 1.223-.748 2.3-.748 1.078 0 1.774.217 2.305.749.885.87 1.281 2.716 1.281 5.958 0 2.74-.28 4.48-.894 5.466m-96.217-14.87a.053.053 0 0 0-.048.073l6.282 18.455a.295.295 0 0 1 0 .145l-3.547 9.139c0 .043 0 .077.044.077h3.697a.126.126 0 0 0 .11-.077l11.063-27.74c0-.043 0-.072-.049-.072h-4.03a.126.126 0 0 0-.106.073l-4.683 12.13c0 .038-.034.038-.053 0l-4.132-12.13a.106.106 0 0 0-.102-.073zm124.454 14.667a2.059 2.059 0 1 1-2.069 2.059 1.991 1.991 0 0 1 2.069-2.059zm0 3.808a1.75 1.75 0 1 0-1.735-1.75 1.687 1.687 0 0 0 1.735 1.75zm-.817-2.948h.967c.435 0 .754.13.754.619a.56.56 0 0 1-.435.58c.154.038.26.154.338.43.077.275.164.517.232.744h-.45c-.058-.179-.135-.483-.183-.648-.068-.275-.145-.362-.483-.362h-.3v1.01h-.425zm.425 1.068h.382c.3 0 .483-.116.483-.391 0-.276-.222-.372-.454-.372h-.396zM20.015 0v38.347l8.698 2.75V8.944c0-1.517.677-2.522 1.76-2.175 1.415.392 1.69 1.789 1.69 3.287v12.84c5.404 2.614 9.666 0 9.666-6.901 0-7.056-2.494-10.197-9.834-12.724A105.95 105.95 0 0 0 20.015 0"></path><path d="M30.351 35.49l13.942-4.963c1.58-.584 1.822-1.377.542-1.797-1.28-.42-3.61-.305-5.205.27l-9.279 3.272v-5.21l.532-.173a31.562 31.562 0 0 1 6.466-1.363 27.705 27.705 0 0 1 12.028 1.45c4.098 1.3 4.557 3.199 3.518 4.518-1.039 1.32-3.6 2.252-3.6 2.252l-18.944 6.766zm-26.24-.526c-4.2-1.175-4.9-3.644-2.987-5.07 1.769-1.304 4.79-2.285 4.79-2.285l12.424-4.413v5.026l-8.94 3.19c-1.586.565-1.823 1.363-.547 1.783 1.276.42 3.605.314 5.19-.27l4.297-1.513v4.509l-.865.14A27.889 27.889 0 0 1 4.11 34.964zm45.841 2.025a2.054 2.054 0 1 1-2.063 2.053 1.986 1.986 0 0 1 2.063-2.053zm0 3.803a1.75 1.75 0 1 0-1.734-1.75 1.687 1.687 0 0 0 1.734 1.75zm-.811-2.943h.937c.435 0 .759.125.759.614a.56.56 0 0 1-.44.58c.155.038.266.154.343.43.077.275.164.517.232.744h-.435c-.063-.179-.14-.483-.188-.648-.068-.275-.145-.362-.484-.362h-.28v1.01h-.425zm.425 1.063h.377c.3 0 .483-.116.483-.391 0-.276-.222-.373-.454-.373h-.406z"></path></symbol></defs>
                    <use href="/etc.clientlibs/global_pdc/clientlibs/auto-clientlibs/pdc.designkit/resources/ps-icons-map__dig__brand.svg#ps-icon_brand_playstation-family_logo" fill="#FFFFFF" xlink:href="#ps-icon_brand_playstation-family_logo"></use>
                </svg>