<svg xmlns:xlink="http://www.w3.org/1999/xlink" xmlns="http://www.w3.org/2000/svg" class="" viewBox="0 0 64 64" role="img" aria-label="Facebook" width="64"  height="64" ><defs><symbol id="ps-icon_third-party_facebook" viewBox="0 0 64 64"><path fill-rule="evenodd" d="M49.792 12H14.208A2.208 2.208 0 0 0 12 14.208v35.584A2.208 2.208 0 0 0 14.208 52h18.751V36.049h-5.025v-6.037h5.025v-3.99c0-5.167 3.155-7.98 7.764-7.98 1.452-.01 2.904.07 4.346.237v5.4l-2.884.001c-2.507 0-2.992 1.191-2.992 2.939v3.393h5.978l-.779 6.037h-5.355V52h10.755c1.22 0 2.208-.988 2.208-2.208V14.208A2.208 2.208 0 0 0 49.792 12z"></path></symbol></defs>
                                        <use href="/etc.clientlibs/global_pdc/clientlibs/auto-clientlibs/pdc.designkit/resources/ps-icons-map__dig__third-party.svg#ps-icon_third-party_facebook" fill="#FFFFFF" xlink:href="#ps-icon_third-party_facebook"></use>
                                    </svg>