<svg xmlns:xlink="http://www.w3.org/1999/xlink" xmlns="http://www.w3.org/2000/svg" class="" viewBox="0 0 64 64" role="img" aria-label="Youtube" width="64"  height="64" ><defs><symbol id="ps-icon_third-party_youtube" viewBox="0 0 64 64"><path d="M33.543 18.034l.417.004c3.651.038 11.32.194 13.666.821l.319.096a5.032 4.99 0 0 1 3.219 3.433l.077.302c.686 2.901.754 8.154.759 9.142v.326c-.007 1.025-.077 6.624-.836 9.444l-.097.317a5.023 4.98 0 0 1-3.439 3.212l-.229.057c-1.366.308-4.06.493-6.817.605l-.975.037c-2.918.101-5.742.127-6.97.134h-.349l-.128.002h-.46l-.348-.002a257.155 254.96 0 0 1-6.972-.133l-.975-.036c-2.921-.12-5.77-.323-7.046-.664l-.318-.096a5.03 4.987 0 0 1-3.22-3.433l-.117-.488c-.527-2.385-.667-6.172-.704-8.025v-2.187l.01-.427c.054-2.112.23-5.92.813-8.088l.097-.316a5.027 4.984 0 0 1 3.44-3.212l.306-.072c2.759-.592 10.464-.724 13.778-.753zm-5.652 8.089V37.9l10.472-5.888z"></path></symbol></defs>
                                        <use href="/etc.clientlibs/global_pdc/clientlibs/auto-clientlibs/pdc.designkit/resources/ps-icons-map__dig__third-party.svg#ps-icon_third-party_youtube" fill="#FFFFFF" xlink:href="#ps-icon_third-party_youtube"></use>
                                    </svg>