<svg xmlns:xlink="http://www.w3.org/1999/xlink" xmlns="http://www.w3.org/2000/svg" class="" viewBox="0 0 64 64" role="img" aria-label="Instagram" width="64"  height="64" ><defs><symbol id="ps-icon_third-party_instagram" viewBox="0 0 64 64"><path fill-rule="evenodd" d="M33.712 12.001c2.462.003 3.668.016 4.698.046l.255.008.375.014.253.01c.297.012.606.025.953.041 2.129.097 3.583.436 4.855.93a9.803 9.803 0 0 1 3.542 2.307 9.804 9.804 0 0 1 2.307 3.542c.494 1.272.833 2.726.93 4.855.016.347.03.656.042.953l.01.253.013.375.008.255c.03 1.03.043 2.236.046 4.698l.001 1.34v.743l-.001 1.34c-.003 2.463-.016 3.67-.046 4.7l-.008.254-.014.375-.01.253c-.012.297-.025.606-.041.953-.097 2.129-.436 3.583-.93 4.855a9.804 9.804 0 0 1-2.307 3.542 9.804 9.804 0 0 1-3.542 2.307c-1.272.494-2.726.833-4.855.93-.347.016-.656.03-.953.042l-.253.01-.375.013-.255.008c-1.03.03-2.236.043-4.698.046l-1.34.001h-.743l-1.34-.001c-2.463-.003-3.67-.016-4.7-.046l-.254-.008-.375-.014-.253-.01c-.297-.012-.606-.025-.953-.041-2.129-.097-3.583-.436-4.855-.93a9.804 9.804 0 0 1-3.542-2.307 9.803 9.803 0 0 1-2.307-3.542c-.494-1.272-.833-2.726-.93-4.855-.016-.347-.03-.656-.042-.953l-.01-.253-.013-.375-.008-.255c-.03-1.03-.043-2.236-.046-4.698v-3.424c.003-2.462.016-3.668.046-4.698l.008-.255.014-.375.01-.253c.012-.297.025-.606.041-.953.097-2.129.436-3.583.93-4.855a9.803 9.803 0 0 1 2.307-3.542 9.803 9.803 0 0 1 3.542-2.307c1.272-.494 2.726-.833 4.855-.93.347-.016.656-.03.953-.042l.253-.01.375-.013.255-.008c1.03-.03 2.236-.043 4.698-.046zm-.637 3.603h-2.478l-.615.001c-2.552.004-3.638.02-4.725.059l-.252.01c-.337.012-.685.028-1.087.046-1.95.09-3.009.415-3.713.689-.934.363-1.6.796-2.3 1.496-.7.7-1.133 1.366-1.496 2.3-.274.704-.6 1.763-.689 3.713-.018.402-.034.75-.047 1.087l-.01.252c-.039 1.087-.054 2.173-.058 4.725v.615l-.001.329v2.477l.001.615c.004 2.552.02 3.638.059 4.725l.01.252c.012.337.028.685.046 1.087.09 1.95.415 3.009.689 3.713.363.934.796 1.6 1.496 2.3.7.7 1.366 1.133 2.3 1.496.704.274 1.763.6 3.713.689 1.808.082 2.53.109 6.063.115h.616l.328.001h2.478l.616-.001c3.532-.006 4.255-.033 6.063-.115 1.95-.09 3.009-.415 3.713-.689.934-.363 1.6-.796 2.3-1.496.7-.7 1.133-1.366 1.496-2.3.274-.704.6-1.763.689-3.713.018-.402.034-.75.047-1.087l.01-.252c.039-1.087.054-2.173.058-4.725v-.615l.001-.328V30.597l-.001-.615c-.004-2.552-.02-3.638-.059-4.725l-.01-.252c-.012-.337-.028-.685-.046-1.087-.09-1.95-.415-3.009-.689-3.713-.363-.934-.796-1.6-1.496-2.3-.7-.7-1.366-1.133-2.3-1.496-.704-.274-1.763-.6-3.713-.689-.402-.018-.75-.034-1.087-.047l-.252-.01c-1.087-.039-2.173-.054-4.725-.058h-.615l-.328-.001zM32 21.73c5.672 0 10.27 4.598 10.27 10.27S37.672 42.27 32 42.27 21.73 37.672 21.73 32 26.328 21.73 32 21.73zm0 3.603a6.667 6.667 0 1 0 0 13.334 6.667 6.667 0 0 0 0-13.334zm10.676-6.41a2.4 2.4 0 1 1 0 4.801 2.4 2.4 0 0 1 0-4.8z"></path></symbol></defs>
                                        <use href="/etc.clientlibs/global_pdc/clientlibs/auto-clientlibs/pdc.designkit/resources/ps-icons-map__dig__third-party.svg#ps-icon_third-party_instagram" fill="#FFFFFF" xlink:href="#ps-icon_third-party_instagram"></use>
                                    </svg>