<svg xmlns:xlink="http://www.w3.org/1999/xlink" xmlns="http://www.w3.org/2000/svg" viewBox="0 0 64 64" role="img" aria-label="Netzwerk" width="64"  height="64" ><defs><symbol id="ps-icon_symbols_global" viewBox="0 0 64 64"><path fill-rule="evenodd" d="M32 11.524c11.291 0 20.475 9.185 20.475 20.476 0 11.29-9.184 20.477-20.474 20.477-11.29 0-20.476-9.186-20.476-20.477S20.71 11.524 32 11.524zm0 2.302c-1.084 0-2.142.114-3.174.297l5.556 2.913s.482.226.367.62c-.111.397-.61 1.169-.61 1.169s-.123.47-.885.497c-.761.028-1.253 0-1.253 0-.082.003-.588.04-.53.56.096.833.18 1.617.18 1.62l.652 1.465s.364.642-.302 1.318c-.284.288-1.255 1.172-2.276 2.092l-.41.369a580.95 580.95 0 0 1-1.668 1.492l-.144.13-.008.007-.175.156a1.147 1.147 0 0 0-.245.396c-.142.384-.424 1.965-.424 1.965s-.029.676-.819 1.579a232.55 232.55 0 0 1-2.777 3.049l.767 2.857c.376 1.41-1.12.033-1.12.033s-2.686-3.804-3.059-4.79l-.81-1.374s-.422-.97-.93-.246c-.508.725-.423 1.736-.423 1.736v.094c0 .047-.002.107-.007.17l-.008.076c-.053.382-.266.71-1.107-1.292-.352-.833-.574-2.57-.574-2.57s-.196-.988-.732-1.411a87.354 87.354 0 0 1-.807-.648A18.198 18.198 0 0 0 13.827 32c0 10.02 8.153 18.173 18.174 18.173 9.047 0 16.547-6.652 17.925-15.317-.895-1.303-3.034-4.77-3.126-5.097-.113-.396 0-2.016 0-2.016l.339-3.178-.96-3.904a18.283 18.283 0 0 0-2.578-2.634l-.632-.033c-.98-.05-1.901-.095-2.138-.101-.555-.014-.457.399-.457.399l.161.365s.194.383.025.553c-.34.339-.763-.014-.763-.014s-1.447-.938-2.048-1.444c-.602-.505-.183-1.362-.183-1.362l.39-1.54A18.045 18.045 0 0 0 32 13.826zm-.87 26.892s.833-.297 1.588.145c.76.441 3.391 1.742 3.391 1.742s.882.42.234 1.827c-.65 1.408-1.173 2.505-1.173 2.505s-.352 1.003-1.295.214a69.726 69.726 0 0 1-1.585-1.366s-.578-.708-1.762-.48a36.13 36.13 0 0 0-2.185.506l-.105.029-.037.01s-.73.341-1.373-.37c-.16-.178-.347-.39-.536-.607l-.226-.262c-.487-.565-.93-1.093-.93-1.093s-.842-.845.433-1.21zm.524-14.222c.238-.19.643-.142.586.259-.057.401-.869 1.41-.869 1.41-.326.332-1.664.793-1.99.829-.324.041-.036-.258.227-.508s1.808-1.8 2.046-1.99z"></path></symbol></defs>
	                 <use href="/etc.clientlibs/global_pdc/clientlibs/auto-clientlibs/pdc.designkit/resources/ps-icons-map__dig__symbols.svg#ps-icon_symbols_global" fill="#FFFFFF" xlink:href="#ps-icon_symbols_global"></use>
	             </svg>